<?xml version="1.0" encoding="UTF-8"?>
<svg version="1.1" xmlns="http://www.w3.org/2000/svg" width="261" height="220">
<path d="M0 0 C86.13 0 172.26 0 261 0 C261 72.6 261 145.2 261 220 C174.87 220 88.74 220 0 220 C0 147.4 0 74.8 0 0 Z " fill="#469E65" transform="translate(0,0)"/>
<path d="M0 0 C86.13 0 172.26 0 261 0 C261 72.6 261 145.2 261 220 C174.87 220 88.74 220 0 220 C0 147.4 0 74.8 0 0 Z M38.31640625 21.07421875 C33.9315593 27.48884648 31.88631735 34.31581162 31.85955811 42.05168152 C31.85384796 43.04538757 31.84813782 44.03909363 31.84225464 45.06291199 C31.84113678 46.14196304 31.84001892 47.2210141 31.83886719 48.33276367 C31.83390228 49.47810577 31.82893738 50.62344788 31.82382202 51.80349731 C31.80922055 55.59166059 31.80240133 59.37978196 31.796875 63.16796875 C31.79112142 65.8048757 31.78536372 68.44178264 31.77960205 71.07868958 C31.77003842 75.90269372 31.76413706 80.72668886 31.7611053 85.55070132 C31.75663061 92.62998878 31.73910583 99.70908257 31.7101047 106.78831118 C31.68579587 112.93763913 31.67815671 119.08688775 31.67642975 125.23626137 C31.67340964 127.84325527 31.66540286 130.45024848 31.65224457 133.05721092 C31.63511725 136.71170941 31.63708109 140.36574091 31.64355469 144.02026367 C31.6343399 145.08919357 31.62512512 146.15812347 31.6156311 147.25944519 C31.68427456 159.68130421 35.3049217 169.20861287 43.8125 178.25 C50.818644 184.95381508 59.2699277 188.20165953 69 188 C68.97643433 188.90709717 68.97643433 188.90709717 68.95239258 189.83251953 C68.8896812 192.59658296 68.85089589 195.36049621 68.8125 198.125 C68.78736328 199.07632813 68.76222656 200.02765625 68.73632812 201.0078125 C68.61044962 208.49842874 68.61044962 208.49842874 72 215 C75.30817457 216.35834043 75.30817457 216.35834043 79 216 C82.16678631 214.38512098 82.16678631 214.38512098 85.0625 211.8125 C85.6090625 211.36559814 86.155625 210.91869629 86.71875 210.45825195 C88.49756214 208.99279916 90.24894542 207.49846673 92 206 C93.25853618 204.94462237 94.51765686 203.88994139 95.77734375 202.8359375 C98.16416953 200.82326111 100.54458059 198.80387837 102.90625 196.76171875 C103.38384766 196.34881592 103.86144531 195.93591309 104.35351562 195.51049805 C106.16930721 193.92096286 106.16930721 193.92096286 108.05326843 191.44482422 C112.0402212 188.13695634 114.76856058 188.30022495 119.79418945 188.37231445 C121.10737152 188.36140778 121.10737152 188.36140778 122.44708252 188.35028076 C125.33622809 188.33170516 128.22413525 188.34775288 131.11328125 188.36328125 C133.12722375 188.35523906 135.14115775 188.34471976 137.15507507 188.33183289 C142.45721306 188.30327207 147.75896038 188.30270924 153.06115723 188.30969238 C161.53655199 188.3170111 170.01181961 188.2855669 178.48711205 188.24724388 C181.44066307 188.23842346 184.39393815 188.24368447 187.3474884 188.25080872 C189.17086867 188.24742191 190.99424831 188.24367196 192.81762695 188.23950195 C194.03907661 188.24804451 194.03907661 188.24804451 195.28520203 188.25675964 C205.99819255 188.20193628 217.27217219 184.72782781 225 177 C232.66436239 167.22341175 235.60770469 157.97344107 235.51757812 145.62475586 C235.5245874 144.42830948 235.53159668 143.2318631 235.53881836 141.99916077 C235.55331324 138.74696218 235.55004907 135.49542478 235.53730202 132.24323726 C235.52709673 128.82283555 235.53658818 125.40247456 235.54284668 121.98207092 C235.5501004 116.24179279 235.54059457 110.50172129 235.52148438 104.76147461 C235.49970939 98.14477905 235.50678033 91.5285765 235.52879 84.91189283 C235.5469969 79.20794577 235.54947695 73.5041463 235.53903532 67.80017954 C235.5328306 64.4034417 235.53188075 61.00693491 235.54518127 57.61021233 C235.55537492 53.82175548 235.53980462 50.03423684 235.51757812 46.24584961 C235.52567505 45.13442596 235.53377197 44.02300232 235.54211426 42.87789917 C235.42744791 32.29219858 231.8021106 24.17150372 224.5625 16.375 C223.716875 15.59125 222.87125 14.8075 222 14 C221.278125 13.319375 220.55625 12.63875 219.8125 11.9375 C211.19063556 5.99799339 202.87209682 5.41923286 192.62109375 5.48242188 C191.19743131 5.47699064 189.77377451 5.4698624 188.35012817 5.46118164 C184.51118611 5.44306399 180.67267769 5.44996741 176.83372879 5.46269798 C172.7998673 5.47288607 168.76604081 5.46341628 164.73217773 5.45715332 C157.96038202 5.44989371 151.18876129 5.45942011 144.41699219 5.47851562 C136.60860004 5.50028121 128.8006258 5.49322864 120.99224377 5.47121 C114.2657907 5.45300769 107.53946281 5.45052119 100.81299305 5.46096468 C96.80534334 5.46717318 92.7978895 5.46810869 88.79025269 5.45481873 C85.02088922 5.44319009 81.25206002 5.45141222 77.48275375 5.47439575 C75.4546658 5.48213285 73.4265322 5.47038709 71.39846802 5.45788574 C57.67479136 5.5839635 47.04917181 10.34267306 38.31640625 21.07421875 Z " fill="#FAF9F3" transform="translate(0,0)"/>
<path d="M0 0 C10.50137463 -0.11626305 21.00259411 -0.20490177 31.50448322 -0.25906086 C36.38188352 -0.28506524 41.25884088 -0.32029433 46.13598633 -0.37719727 C50.84984325 -0.43184584 55.5632763 -0.46148928 60.27742577 -0.47438622 C62.06865288 -0.48356751 63.8598589 -0.50149557 65.6509037 -0.52865028 C75.85373219 -0.67707392 84.02440072 -0.5037732 93 5 C93.67899857 5.38907028 94.35799713 5.77814056 95.05757141 6.17900085 C102.7197534 10.74480885 107.69325377 19.60127741 110 28 C110.36785437 31.31273155 110.324305 34.57516035 110.2487793 37.90429688 C110.23946381 38.861315 110.23014832 39.81833313 110.22055054 40.80435181 C110.18639152 43.94285868 110.13046143 47.08056788 110.07421875 50.21875 C110.04616312 52.40448344 110.01947513 54.59023483 109.99409485 56.77600098 C109.92385197 62.51038393 109.83510007 68.244335 109.74243164 73.97839355 C109.65104624 79.83701022 109.57725001 85.69584588 109.50195312 91.5546875 C109.35180506 103.03673992 109.18209345 114.51841287 109 126 C108.67 126 108.34 126 108 126 C108 118.08 108 110.16 108 102 C107.67 102.66 107.34 103.32 107 104 C106.01 103.67 105.02 103.34 104 103 C104.33 102.01 104.66 101.02 105 100 C104.34 100 103.68 100 103 100 C103.33 98.35 103.66 96.7 104 95 C102.35 94.67 100.7 94.34 99 94 C98.67 94.66 98.34 95.32 98 96 C97 93 97 93 98 90 C96.35 90 94.7 90 93 90 C92.505 91.485 92.505 91.485 92 93 C91.01 93.495 91.01 93.495 90 94 C90.66 94.33 91.32 94.66 92 95 C91.34 96.98 90.68 98.96 90 101 C89.34 101 88.68 101 88 101 C87.67 101.66 87.34 102.32 87 103 C86.34 102.67 85.68 102.34 85 102 C85 99.69 85 97.38 85 95 C84.34 94.67 83.68 94.34 83 94 C83.99 94 84.98 94 86 94 C84.68 92.68 83.36 91.36 82 90 C82.33 90.99 82.66 91.98 83 93 C82.34 93 81.68 93 81 93 C79.875 88.25 79.875 88.25 81 86 C82.65 86.33 84.3 86.66 86 87 C86.33 86.34 86.66 85.68 87 85 C88.98 85.495 88.98 85.495 91 86 C91.12375 85.401875 91.2475 84.80375 91.375 84.1875 C92 82 92 82 94 79 C93.34 78.67 92.68 78.34 92 78 C91.67 77.34 91.34 76.68 91 76 C89.68 76 88.36 76 87 76 C86.67 76.66 86.34 77.32 86 78 C85.01 78 84.02 78 83 78 C82.67 78.66 82.34 79.32 82 80 C81.525625 79.360625 81.05125 78.72125 80.5625 78.0625 C79.16261274 76.11706694 79.16261274 76.11706694 78 75 C77.01 77.97 76.02 80.94 75 84 C74.13375 83.9175 73.2675 83.835 72.375 83.75 C68.23826161 84.05642507 66.36272051 85.68345921 63 88 C61.515 87.505 61.515 87.505 60 87 C60.495 85.515 60.495 85.515 61 84 C60.34 83.67 59.68 83.34 59 83 C57.55802132 81.55802132 56.88213756 79.82308429 56 78 C56.9590625 76.9171875 56.9590625 76.9171875 57.9375 75.8125 C59.98673535 73.01808816 60.61332946 71.38336726 61 68 C59.10820797 67.3185177 59.10820797 67.3185177 57 67 C56.34 67.66 55.68 68.32 55 69 C53.515 68.01 53.515 68.01 52 67 C51.67 70.3 51.34 73.6 51 77 C49.68 77 48.36 77 47 77 C47.66 77.66 48.32 78.32 49 79 C47.02 79.99 47.02 79.99 45 81 C45 81.99 45 82.98 45 84 C41.61606992 85.69196504 37.77522209 85.11986549 34.0546875 85.09765625 C33.1696756 85.0962413 32.2846637 85.09482635 31.37283325 85.09336853 C28.54018809 85.0877614 25.70762136 85.07520771 22.875 85.0625 C20.95703239 85.05748592 19.03906354 85.05292285 17.12109375 85.04882812 C12.41403218 85.03778966 7.7070294 85.02052025 3 85 C3.00523682 84.30849854 3.01047363 83.61699707 3.01586914 82.90454102 C3.036575 79.79053648 3.04963963 76.67654639 3.0625 73.5625 C3.07087891 72.47388672 3.07925781 71.38527344 3.08789062 70.26367188 C3.09111328 69.22919922 3.09433594 68.19472656 3.09765625 67.12890625 C3.10289307 66.17056885 3.10812988 65.21223145 3.11352539 64.22485352 C3.2505313 62.02714661 3.2505313 62.02714661 2 61 C2 69.25 2 77.5 2 86 C4.93648437 85.96519531 7.87296875 85.93039063 10.8984375 85.89453125 C13.73469062 85.8711517 16.57093312 85.85292601 19.40722656 85.83520508 C21.38221013 85.82009538 23.35716004 85.79960672 25.33203125 85.77368164 C28.16675106 85.73739381 31.00102826 85.72029584 33.8359375 85.70703125 C34.72243988 85.69154739 35.60894226 85.67606354 36.52230835 85.66011047 C37.34300812 85.65988388 38.16370789 85.65965729 39.00927734 85.65942383 C39.73319672 85.65276199 40.45711609 85.64610016 41.20297241 85.63923645 C43 86 43 86 45 89 C45.25878906 91.05297852 45.25878906 91.05297852 45.265625 93.37890625 C45.26949219 94.63670898 45.26949219 94.63670898 45.2734375 95.91992188 C45.26570313 96.79197266 45.25796875 97.66402344 45.25 98.5625 C45.26160156 99.87637695 45.26160156 99.87637695 45.2734375 101.21679688 C45.27085937 102.05404297 45.26828125 102.89128906 45.265625 103.75390625 C45.26336914 104.52033447 45.26111328 105.2867627 45.25878906 106.07641602 C45 108 45 108 43 110 C39.91475061 110.17553419 36.92035798 110.23122797 33.8359375 110.1953125 C32.47512558 110.19106766 32.47512558 110.19106766 31.08682251 110.18673706 C28.18274877 110.17552153 25.27898088 110.15041463 22.375 110.125 C20.40885861 110.11497197 18.4427124 110.10584581 16.4765625 110.09765625 C11.65092341 110.07557772 6.8255136 110.04103865 2 110 C2.00785522 111.8097229 2.00785522 111.8097229 2.01586914 113.65600586 C2.03391611 118.11563378 2.04543089 122.57525846 2.05493164 127.03491211 C2.05997256 128.96818585 2.06680519 130.90145576 2.07543945 132.8347168 C2.08751565 135.60726872 2.09323057 138.37977041 2.09765625 141.15234375 C2.10281754 142.02213364 2.10797882 142.89192352 2.11329651 143.78807068 C2.11349185 145.85905814 2.06208168 147.92994324 2 150 C-0.53309722 152.53309722 -7.52994908 151.18555171 -10.9375 151.1875 C-12.06091797 151.19974609 -13.18433594 151.21199219 -14.34179688 151.22460938 C-15.41365234 151.22654297 -16.48550781 151.22847656 -17.58984375 151.23046875 C-18.57847412 151.23457764 -19.56710449 151.23868652 -20.58569336 151.24291992 C-23 151 -23 151 -25 149 C-25.25168228 147.06557751 -25.25168228 147.06557751 -25.25396729 144.65507507 C-25.25960693 143.74240875 -25.26524658 142.82974243 -25.27105713 141.88941956 C-25.26700867 140.88523483 -25.26296021 139.88105011 -25.25878906 138.84643555 C-25.2622937 137.79103577 -25.26579834 136.73563599 -25.26940918 135.64825439 C-25.27824232 132.1443431 -25.27237045 128.64063226 -25.265625 125.13671875 C-25.2669715 122.70774802 -25.2689119 120.27877755 -25.27142334 117.84980774 C-25.274377 112.75116417 -25.27007029 107.65259054 -25.26074219 102.55395508 C-25.24936573 96.01675926 -25.25589423 89.47972799 -25.26788712 82.94253826 C-25.27511466 77.92312888 -25.27281333 72.90375848 -25.26763153 67.88434792 C-25.26629657 65.4741902 -25.26793737 63.06402895 -25.27259064 60.65387535 C-25.27766844 57.28307099 -25.26992686 53.9125326 -25.25878906 50.54174805 C-25.26283752 49.54363602 -25.26688599 48.54552399 -25.27105713 47.51716614 C-25.21985471 39.15425724 -25.21985471 39.15425724 -23 35 C-21.25093341 34.80398392 -19.50068154 34.61852597 -17.75 34.4375 C-16.28820312 34.28087891 -16.28820312 34.28087891 -14.796875 34.12109375 C-12.2368648 34.01025532 -10.41851841 34.22261908 -8 35 C-7.67 34.34 -7.34 33.68 -7 33 C-6.505 33.495 -6.505 33.495 -6 34 C-5.34 32.68 -4.68 31.36 -4 30 C-3.01 31.32 -2.02 32.64 -1 34 C0.68630119 30.48966871 0.68630119 30.48966871 0.625 26.6875 C0.315625 25.8521875 0.315625 25.8521875 0 25 C1.65 25.66 3.3 26.32 5 27 C6.32 25.35 7.64 23.7 9 22 C7.68 21.01 6.36 20.02 5 19 C5.495 18.401875 5.99 17.80375 6.5 17.1875 C8.28276418 15.02970006 8.28276418 15.02970006 8 12 C9.32 12.33 10.64 12.66 12 13 C11.7525 11.576875 11.7525 11.576875 11.5 10.125 C11 7 11 7 11 5 C7.6136749 3.49069817 7.6136749 3.49069817 4 3 C3.67 3.66 3.34 4.32 3 5 C1.68 4.34 0.36 3.68 -1 3 C-0.67 2.01 -0.34 1.02 0 0 Z M11 18 C11 18.99 11 19.98 11 21 C11.66 20.34 12.32 19.68 13 19 C12.34 18.67 11.68 18.34 11 18 Z " fill="#54A867" transform="translate(125,6)"/>
<path d="M0 0 C3.01187134 -0.36076355 3.01187134 -0.36076355 6.92822266 -0.34057617 C7.64052536 -0.34101425 8.35282806 -0.34145233 9.0867157 -0.34190369 C11.44610812 -0.3398101 13.80479391 -0.31645325 16.1640625 -0.29296875 C17.79787813 -0.2873748 19.43169878 -0.28310375 21.06552124 -0.28010559 C25.36960702 -0.26864094 29.67338998 -0.23916008 33.97735596 -0.20599365 C38.36767479 -0.17532751 42.75804247 -0.16160767 47.1484375 -0.14648438 C55.7657641 -0.11429171 64.3828444 -0.06307608 73 0 C74.21858107 2.43716215 74.12925575 4.03274057 74.1328125 6.75390625 C74.13410156 7.69041016 74.13539063 8.62691406 74.13671875 9.59179688 C74.13285156 10.57212891 74.12898438 11.55246094 74.125 12.5625 C74.12886719 13.54669922 74.13273437 14.53089844 74.13671875 15.54492188 C74.13542969 16.48013672 74.13414062 17.41535156 74.1328125 18.37890625 C74.13168457 19.2407251 74.13055664 20.10254395 74.12939453 20.99047852 C74 23 74 23 73 24 C71.49581261 24.09311889 69.98728644 24.11746028 68.48022461 24.11352539 C67.03884377 24.11341209 67.03884377 24.11341209 65.56834412 24.11329651 C64.523564 24.10813522 63.47878387 24.10297394 62.40234375 24.09765625 C61.33834854 24.0962413 60.27435333 24.09482635 59.17811584 24.09336853 C55.76454917 24.08775064 52.351047 24.07519511 48.9375 24.0625 C46.62955824 24.05748731 44.32161545 24.052924 42.01367188 24.04882812 C36.34240279 24.03862433 30.67127399 24.01905243 25 24 C25 32.25 25 40.5 25 49 C27.93648437 48.96519531 30.87296875 48.93039063 33.8984375 48.89453125 C36.73469062 48.8711517 39.57093312 48.85292601 42.40722656 48.83520508 C44.38221013 48.82009538 46.35716004 48.79960672 48.33203125 48.77368164 C51.16675106 48.73739381 54.00102826 48.72029584 56.8359375 48.70703125 C57.72243988 48.69154739 58.60894226 48.67606354 59.52230835 48.66011047 C60.34300812 48.65988388 61.16370789 48.65965729 62.00927734 48.65942383 C63.0951564 48.64943108 63.0951564 48.64943108 64.20297241 48.63923645 C66 49 66 49 68 52 C68.25878906 54.05297852 68.25878906 54.05297852 68.265625 56.37890625 C68.26949219 57.63670898 68.26949219 57.63670898 68.2734375 58.91992188 C68.26570313 59.79197266 68.25796875 60.66402344 68.25 61.5625 C68.25773437 62.43841797 68.26546875 63.31433594 68.2734375 64.21679688 C68.27085937 65.05404297 68.26828125 65.89128906 68.265625 66.75390625 C68.26336914 67.52033447 68.26111328 68.2867627 68.25878906 69.07641602 C68 71 68 71 66 73 C62.91475061 73.17553419 59.92035798 73.23122797 56.8359375 73.1953125 C55.47512558 73.19106766 55.47512558 73.19106766 54.08682251 73.18673706 C51.18274877 73.17552153 48.27898088 73.15041463 45.375 73.125 C43.40885861 73.11497197 41.4427124 73.10584581 39.4765625 73.09765625 C34.65092341 73.07557772 29.8255136 73.04103865 25 73 C25.00785522 74.8097229 25.00785522 74.8097229 25.01586914 76.65600586 C25.03391611 81.11563378 25.04543089 85.57525846 25.05493164 90.03491211 C25.05997256 91.96818585 25.06680519 93.90145576 25.07543945 95.8347168 C25.08751565 98.60726872 25.09323057 101.37977041 25.09765625 104.15234375 C25.10281754 105.02213364 25.10797882 105.89192352 25.11329651 106.78807068 C25.11349185 108.85905814 25.06208168 110.92994324 25 113 C22.46690278 115.53309722 15.47005092 114.18555171 12.0625 114.1875 C10.37737305 114.20586914 10.37737305 114.20586914 8.65820312 114.22460938 C7.58634766 114.22654297 6.51449219 114.22847656 5.41015625 114.23046875 C3.92721069 114.23663208 3.92721069 114.23663208 2.41430664 114.24291992 C0 114 0 114 -2 112 C-2.25168228 110.05999088 -2.25168228 110.05999088 -2.25396729 107.64161682 C-2.25960693 106.72606018 -2.26524658 105.81050354 -2.27105713 104.86720276 C-2.26700867 103.85987595 -2.26296021 102.85254913 -2.25878906 101.81469727 C-2.2622937 100.7560849 -2.26579834 99.69747253 -2.26940918 98.60678101 C-2.27824076 95.09325683 -2.27237183 91.57993262 -2.265625 88.06640625 C-2.26697134 85.63264426 -2.26891161 83.19888253 -2.27142334 80.76512146 C-2.27437662 75.65808559 -2.27007074 70.55111956 -2.26074219 65.4440918 C-2.24935364 58.88876306 -2.25590215 52.33359819 -2.26788712 45.77827549 C-2.27510533 40.75036885 -2.27281784 35.72250122 -2.26763153 30.69459343 C-2.26629462 28.2772005 -2.2679442 25.85980407 -2.27259064 23.44241524 C-2.2776545 20.06641349 -2.26994711 16.69067904 -2.25878906 13.31469727 C-2.26283752 12.30939468 -2.26688599 11.3040921 -2.27105713 10.26832581 C-2.26541748 9.34994934 -2.25977783 8.43157288 -2.25396729 7.48536682 C-2.25321323 6.68692636 -2.25245918 5.88848589 -2.25168228 5.06585026 C-2 3 -2 3 0 0 Z " fill="#F8F8F2" transform="translate(102,43)"/>
<path d="M0 0 C0.99 0.33 1.98 0.66 3 1 C2.34 1 1.68 1 1 1 C1 2.65 1 4.3 1 6 C1.66 6 2.32 6 3 6 C3.66 6 4.32 6 5 6 C5 6.99 5 7.98 5 9 C4.01 9 3.02 9 2 9 C2 10.32 2 11.64 2 13 C3.65 12.67 5.3 12.34 7 12 C7 11.34 7 10.68 7 10 C8.32 10.66 9.64 11.32 11 12 C11 12.66 11 13.32 11 14 C11.515625 14.825 12.03125 15.65 12.5625 16.5 C13.036875 17.325 13.51125 18.15 14 19 C13.67 19.66 13.34 20.32 13 21 C14.65 21.33 16.3 21.66 18 22 C18.66 20.02 19.32 18.04 20 16 C22.31 16 24.62 16 27 16 C23.62209703 19.4700276 20.13504664 22.63699384 16.375 25.6875 C15.43398437 26.45449219 14.49296875 27.22148437 13.5234375 28.01171875 C8.46168959 32 8.46168959 32 4.5 32 C1 31 1 31 -0.70703125 28.6171875 C-2.46421173 23.70132911 -2.32419433 19.29835481 -2.1875 14.125 C-2.17396484 13.15046875 -2.16042969 12.1759375 -2.14648438 11.171875 C-2.11131962 8.78067137 -2.0621067 6.39063025 -2 4 C-4.64 3.67 -7.28 3.34 -10 3 C-10 2.67 -10 2.34 -10 2 C-8.72125 2.04125 -7.4425 2.0825 -6.125 2.125 C-3.98128508 2.24212873 -3.98128508 2.24212873 -2 2 C-1.34 1.34 -0.68 0.68 0 0 Z " fill="#359262" transform="translate(71,184)"/>
<path d="M0 0 C0.66 0 1.32 0 2 0 C2 0.99 2 1.98 2 3 C2.81404297 2.64035156 2.81404297 2.64035156 3.64453125 2.2734375 C4.35996094 1.97695312 5.07539062 1.68046875 5.8125 1.375 C6.52019531 1.07335937 7.22789063 0.77171875 7.95703125 0.4609375 C8.63121094 0.30882812 9.30539063 0.15671875 10 0 C12.98206012 1.98804008 13.90674247 3.14102793 15.6875 6.125 C16.34298828 7.21167969 16.34298828 7.21167969 17.01171875 8.3203125 C17.50091797 9.15175781 17.50091797 9.15175781 18 10 C17.01 10.33 16.02 10.66 15 11 C14.34 10.67 13.68 10.34 13 10 C13.79117904 11.99983534 13.79117904 11.99983534 15 14 C15.99 14.33 16.98 14.66 18 15 C17.34 15.61875 16.68 16.2375 16 16.875 C13.7715451 18.75637427 13.7715451 18.75637427 14 21 C7.94096076 18.34324007 3.48157387 13.28970507 -0.0625 7.8125 C-1.09822851 4.70531448 -0.99825709 3.08552191 0 0 Z " fill="#399463" transform="translate(36,161)"/>
<path d="M0 0 C0.33 0.66 0.66 1.32 1 2 C-0.32 2.33 -1.64 2.66 -3 3 C-2.01 4.485 -2.01 4.485 -1 6 C1.58380177 6.25030977 1.58380177 6.25030977 4 6 C4.33 6.66 4.66 7.32 5 8 C3.02 8.99 3.02 8.99 1 10 C1 10.66 1 11.32 1 12 C2.32 12 3.64 12 5 12 C4.67 12.66 4.34 13.32 4 14 C1.36 13.67 -1.28 13.34 -4 13 C-4 13.66 -4 14.32 -4 15 C-4.99 15.33 -5.98 15.66 -7 16 C-7.66 16.99 -8.32 17.98 -9 19 C-9 13.72 -9 8.44 -9 3 C-5.8390781 1.73563124 -3.23549631 0.71899918 0 0 Z " fill="#56A967" transform="translate(42,58)"/>
<path d="M0 0 C0.66 0.33 1.32 0.66 2 1 C1.979375 1.721875 1.95875 2.44375 1.9375 3.1875 C2.04569074 8.65510151 2.04569074 8.65510151 5 13 C4.34 13 3.68 13 3 13 C2.67 13.99 2.34 14.98 2 16 C1.01 14.68 0.02 13.36 -1 12 C-0.34414811 15.60992379 -0.34414811 15.60992379 1 19 C0.01 19.33 -0.98 19.66 -2 20 C-2.33 20.66 -2.66 21.32 -3 22 C-4.65 22 -6.3 22 -8 22 C-7.67 20.35 -7.34 18.7 -7 17 C-6.34 17 -5.68 17 -5 17 C-5.20625 15.741875 -5.4125 14.48375 -5.625 13.1875 C-6.21335669 9.5985242 -6.16617415 9.24926122 -4 6 C-3.34 6 -2.68 6 -2 6 C-2.33 5.01 -2.66 4.02 -3 3 C-2.01 2.67 -1.02 2.34 0 2 C0 1.34 0 0.68 0 0 Z " fill="#3C9665" transform="translate(151,149)"/>
<path d="M0 0 C10.23 0 20.46 0 31 0 C30.67 1.32 30.34 2.64 30 4 C27.525 3.505 27.525 3.505 25 3 C25 3.99 25 4.98 25 6 C24.34 6 23.68 6 23 6 C22 5 21 4 20 3 C19.34 3 18.68 3 18 3 C17.01 4.485 17.01 4.485 16 6 C15.67 5.34 15.34 4.68 15 4 C15.33 3.34 15.66 2.68 16 2 C14.68 2.33 13.36 2.66 12 3 C12 3.66 12 4.32 12 5 C9.36 5 6.72 5 4 5 C3.67 4.01 3.34 3.02 3 2 C2.01 2.33 1.02 2.66 0 3 C0 2.01 0 1.02 0 0 Z " fill="#5EAF67" transform="translate(80,6)"/>
<path d="M0 0 C2.31 0.33 4.62 0.66 7 1 C7 1.66 7 2.32 7 3 C8.98 2.34 10.96 1.68 13 1 C13 1.66 13 2.32 13 3 C14.65 3.33 16.3 3.66 18 4 C13.375 9.875 13.375 9.875 10 11 C9.566875 10.175 9.13375 9.35 8.6875 8.5 C8.130625 7.675 7.57375 6.85 7 6 C6.01 6 5.02 6 4 6 C1.60028446 4.06176821 1.00203321 3.00609963 0 0 Z " fill="#399464" transform="translate(82,176)"/>
<path d="M0 0 C0.99 0.33 1.98 0.66 3 1 C2.34 1 1.68 1 1 1 C0.91773332 4.04386724 1.02391783 6.07175348 2 9 C1.34 9 0.68 9 0 9 C0 12.96 0 16.92 0 21 C-2 19 -2 19 -2.1953125 15.5234375 C-2.18201493 14.14049032 -2.15816232 12.75761346 -2.125 11.375 C-2.11597656 10.66859375 -2.10695313 9.9621875 -2.09765625 9.234375 C-2.07407603 7.48943902 -2.03820461 5.74467705 -2 4 C-4.64 3.67 -7.28 3.34 -10 3 C-10 2.67 -10 2.34 -10 2 C-8.72125 2.04125 -7.4425 2.0825 -6.125 2.125 C-3.98128508 2.24212873 -3.98128508 2.24212873 -2 2 C-1.34 1.34 -0.68 0.68 0 0 Z " fill="#2A8E5B" transform="translate(71,184)"/>
<path d="M0 0 C0.33 0.99 0.66 1.98 1 3 C1.66 3 2.32 3 3 3 C3 4.65 3 6.3 3 8 C2.34 8 1.68 8 1 8 C0.67 8.99 0.34 9.98 0 11 C0 10.34 0 9.68 0 9 C-0.66 9 -1.32 9 -2 9 C-2.33 9.66 -2.66 10.32 -3 11 C-3.66 11 -4.32 11 -5 11 C-5.33 10.01 -5.66 9.02 -6 8 C-5.34 7.67 -4.68 7.34 -4 7 C-3.855625 6.195625 -3.71125 5.39125 -3.5625 4.5625 C-3 2 -3 2 0 0 Z " fill="#3B9565" transform="translate(82,164)"/>
<path d="M0 0 C2.50357861 0.8345262 4.66785852 1.79371992 7 3 C6.875 4.75 6.875 4.75 6 7 C2.9375 9.25 2.9375 9.25 0 11 C0 7.37 0 3.74 0 0 Z " fill="#51A667" transform="translate(33,86)"/>
<path d="M0 0 C-2 3 -2 3 -4 3.6875 C-6 4 -6 4 -8 4 C-8.33 4.66 -8.66 5.32 -9 6 C-9.99 5.34 -10.98 4.68 -12 4 C-8.20200235 -0.17779742 -5.57396889 -1.54832469 0 0 Z " fill="#59AF62" transform="translate(62,8)"/>
<path d="M0 0 C0.66 0.99 1.32 1.98 2 3 C1 4 1 4 -1.59204102 4.11352539 C-2.71795654 4.10828857 -3.84387207 4.10305176 -5.00390625 4.09765625 C-6.21884766 4.09443359 -7.43378906 4.09121094 -8.68554688 4.08789062 C-9.96494141 4.07951172 -11.24433594 4.07113281 -12.5625 4.0625 C-13.84576172 4.05798828 -15.12902344 4.05347656 -16.45117188 4.04882812 C-19.63416022 4.03699545 -22.81705762 4.02051068 -26 4 C-26 3.01 -26 2.02 -26 1 C-25.67 1.33 -25.34 1.66 -25 2 C-23.21928754 2.08726223 -21.4351686 2.10699041 -19.65234375 2.09765625 C-18.57275391 2.09443359 -17.49316406 2.09121094 -16.38085938 2.08789062 C-15.24455078 2.07951172 -14.10824219 2.07113281 -12.9375 2.0625 C-11.79732422 2.05798828 -10.65714844 2.05347656 -9.48242188 2.04882812 C-6.65489649 2.03699747 -3.8274736 2.0205141 -1 2 C-0.67 1.34 -0.34 0.68 0 0 Z " fill="#098546" transform="translate(127,154)"/>
<path d="M0 0 C2.31 0 4.62 0 7 0 C3.83047153 3.26008643 0.60062011 6.22237877 -3 9 C-3.99 8.34 -4.98 7.68 -6 7 C-5.38125 6.95875 -4.7625 6.9175 -4.125 6.875 C-3.42375 6.58625 -2.7225 6.2975 -2 6 C-0.6954344 3.00384054 -0.6954344 3.00384054 0 0 Z " fill="#2B8851" transform="translate(91,200)"/>
<path d="M0 0 C0.99 0.33 1.98 0.66 3 1 C2.60404157 2.48484412 2.18249294 3.9628831 1.75 5.4375 C1.51796875 6.26121094 1.2859375 7.08492187 1.046875 7.93359375 C0 10 0 10 -2.109375 10.78515625 C-2.73328125 10.85605469 -3.3571875 10.92695313 -4 11 C-4.33 10.01 -4.66 9.02 -5 8 C-4.34 8 -3.68 8 -3 8 C-3 6.68 -3 5.36 -3 4 C-2.67 3.01 -2.34 2.02 -2 1 C-1.34 0.67 -0.68 0.34 0 0 Z " fill="#3C9564" transform="translate(125,158)"/>
<path d="M0 0 C2 0 2 0 3.625 1.5 C4.07875 1.995 4.5325 2.49 5 3 C4.67 3.99 4.34 4.98 4 6 C3.01 6 2.02 6 1 6 C0.67 6.99 0.34 7.98 0 9 C-0.99 8.67 -1.98 8.34 -3 8 C-2.34 7.01 -1.68 6.02 -1 5 C-1.33 4.34 -1.66 3.68 -2 3 C-1.34 3 -0.68 3 0 3 C0 2.01 0 1.02 0 0 Z " fill="#55A967" transform="translate(59,57)"/>
<path d="M0 0 C0.33 0.66 0.66 1.32 1 2 C1.99 2 2.98 2 4 2 C4.33 1.34 4.66 0.68 5 0 C6.32 1.32 7.64 2.64 9 4 C7.02 4.99 7.02 4.99 5 6 C5 5.34 5 4.68 5 4 C3.35 4 1.7 4 0 4 C0 2.68 0 1.36 0 0 Z " fill="#3D9765" transform="translate(61,152)"/>
<path d="M0 0 C0.33 0.66 0.66 1.32 1 2 C2.65 2 4.3 2 6 2 C6 2.99 6 3.98 6 5 C4.02 5.99 4.02 5.99 2 7 C1.67 6.34 1.34 5.68 1 5 C-0.32 5.33 -1.64 5.66 -3 6 C-2.625 3.5625 -2.625 3.5625 -2 1 C-1.34 0.67 -0.68 0.34 0 0 Z " fill="#5AAC67" transform="translate(48,37)"/>
<path d="M0 0 C2.97 0 5.94 0 9 0 C7.515 1.485 7.515 1.485 6 3 C5.34 3 4.68 3 4 3 C3.67 4.65 3.34 6.3 3 8 C2.814375 7.13375 2.814375 7.13375 2.625 6.25 C1.97456503 3.62994613 1.97456503 3.62994613 0 0 Z " fill="#5EAE67" transform="translate(112,6)"/>
<path d="M0 0 C0.99 0.33 1.98 0.66 3 1 C3.33 1.99 3.66 2.98 4 4 C3.34 4 2.68 4 2 4 C2.33 4.99 2.66 5.98 3 7 C1.02 6.34 -0.96 5.68 -3 5 C-1.125 1.125 -1.125 1.125 0 0 Z " fill="#399364" transform="translate(104,173)"/>
<path d="M0 0 C1.32 0.66 2.64 1.32 4 2 C4 2.99 4 3.98 4 5 C4.66 5.33 5.32 5.66 6 6 C4.02 6.99 4.02 6.99 2 8 C-0.36556709 5.63443291 -0.58244041 4.25696479 -1 1 C-0.67 0.67 -0.34 0.34 0 0 Z " fill="#3D9665" transform="translate(157,152)"/>
<path d="M0 0 C2.64 0 5.28 0 8 0 C8 1.32 8 2.64 8 4 C6.68 4 5.36 4 4 4 C3.01 4.495 3.01 4.495 2 5 C1.34 3.35 0.68 1.7 0 0 Z " fill="#59AB67" transform="translate(99,28)"/>
<path d="M0 0 C0.66 0 1.32 0 2 0 C2 0.66 2 1.32 2 2 C2.66 2 3.32 2 4 2 C4.66 3.32 5.32 4.64 6 6 C4.02 6.99 4.02 6.99 2 8 C2 7.01 2 6.02 2 5 C0.68 4.67 -0.64 4.34 -2 4 C-1.34 2.68 -0.68 1.36 0 0 Z " fill="#399464" transform="translate(60,170)"/>
<path d="M0 0 C0.66 0.33 1.32 0.66 2 1 C0.6875 4.4375 0.6875 4.4375 -1 8 C-1.99 8.33 -2.98 8.66 -4 9 C-3.6875 5.625 -3.6875 5.625 -3 2 C-2.01 1.34 -1.02 0.68 0 0 Z " fill="#5EAF67" transform="translate(51,18)"/>
<path d="M0 0 C3.79588866 0.54226981 5.47211993 2.20127563 8 5 C7.67 5.99 7.34 6.98 7 8 C5.8274869 7.04882866 4.66212985 6.08882991 3.5 5.125 C2.8503125 4.59132812 2.200625 4.05765625 1.53125 3.5078125 C1.0259375 3.01023438 0.520625 2.51265625 0 2 C0 1.34 0 0.68 0 0 Z " fill="#2D874C" transform="translate(39,171)"/>
<path d="M0 0 C1.98 0.495 1.98 0.495 4 1 C2.375 6.75 2.375 6.75 -1 9 C-0.67 6.03 -0.34 3.06 0 0 Z " fill="#2A8D56" transform="translate(227,165)"/>
<path d="M0 0 C0.66 0 1.32 0 2 0 C2 0.99 2 1.98 2 3 C2.99 2.67 3.98 2.34 5 2 C4 5 4 5 1.9375 6.1875 C1.298125 6.455625 0.65875 6.72375 0 7 C-1.125 2.25 -1.125 2.25 0 0 Z " fill="#32915E" transform="translate(36,161)"/>
<path d="M0 0 C1.65 1.65 3.3 3.3 5 5 C2.69 5 0.38 5 -2 5 C-1.125 1.125 -1.125 1.125 0 0 Z " fill="#3A9465" transform="translate(139,181)"/>
<path d="M0 0 C1.98 0.66 3.96 1.32 6 2 C5.401875 2.28875 4.80375 2.5775 4.1875 2.875 C1.80672208 4.04742026 1.80672208 4.04742026 -1 6 C-1 5.34 -1 4.68 -1 4 C-1.66 3.67 -2.32 3.34 -3 3 C-2.01 2.01 -1.02 1.02 0 0 Z " fill="#399464" transform="translate(147,176)"/>
<path d="M0 0 C0.99 0.33 1.98 0.66 3 1 C3 2.65 3 4.3 3 6 C1.35 5.67 -0.3 5.34 -2 5 C-1.125 1.125 -1.125 1.125 0 0 Z " fill="#56AC60" transform="translate(41,18)"/>
<path d="M0 0 C2.64 0.33 5.28 0.66 8 1 C7.34 2.32 6.68 3.64 6 5 C5.01 5 4.02 5 3 5 C1.3125 2.5 1.3125 2.5 0 0 Z " fill="#399464" transform="translate(58,179)"/>
<path d="M0 0 C2.64 0 5.28 0 8 0 C7.67 0.99 7.34 1.98 7 3 C7 2.34 7 1.68 7 1 C3.97772938 2.00742354 3.11390767 2.79000562 1 5 C0.67 5 0.34 5 0 5 C0 3.35 0 1.7 0 0 Z " fill="#3E9866" transform="translate(209,158)"/>
<path d="M0 0 C-0.66 1.32 -1.32 2.64 -2 4 C-3.65 4 -5.3 4 -7 4 C-7 3.34 -7 2.68 -7 2 C-4.35261084 0.5393715 -3.10551666 0 0 0 Z " fill="#3A9465" transform="translate(182,182)"/>
<path d="M0 0 C1.65 0 3.3 0 5 0 C4.67 0.66 4.34 1.32 4 2 C3.34 2 2.68 2 2 2 C2 2.66 2 3.32 2 4 C1.34 4 0.68 4 0 4 C-0.33 4.66 -0.66 5.32 -1 6 C-1.33 4.68 -1.66 3.36 -2 2 C-1.34 2 -0.68 2 0 2 C0 1.34 0 0.68 0 0 Z " fill="#3B9565" transform="translate(211,164)"/>
<path d="M0 0 C1.32 1.65 2.64 3.3 4 5 C3.34 5.66 2.68 6.32 2 7 C0.62437146 5.71034824 -0.70766393 4.37310707 -2 3 C-2 2.34 -2 1.68 -2 1 C-1.34 0.67 -0.68 0.34 0 0 Z " fill="#3E9765" transform="translate(214,147)"/>
<path d="M0 0 C1.32 0.33 2.64 0.66 4 1 C3.34 2.32 2.68 3.64 2 5 C0.68 4.67 -0.64 4.34 -2 4 C-1.34 2.68 -0.68 1.36 0 0 Z " fill="#3E9669" transform="translate(72,207)"/>
<path d="M0 0 C1.65 0.33 3.3 0.66 5 1 C5.33 1.99 5.66 2.98 6 4 C3.69 3.67 1.38 3.34 -1 3 C-0.67 2.01 -0.34 1.02 0 0 Z " fill="#2C8E56" transform="translate(54,182)"/>
<path d="M0 0 C2.97 0.495 2.97 0.495 6 1 C6 1.99 6 2.98 6 4 C4.35 3.67 2.7 3.34 1 3 C0.67 2.01 0.34 1.02 0 0 Z " fill="#3C9664" transform="translate(64,161)"/>
<path d="M0 0 C0.99 0.33 1.98 0.66 3 1 C2.67 2.98 2.34 4.96 2 7 C0.68 5.68 -0.64 4.36 -2 3 C-1.34 2.67 -0.68 2.34 0 2 C0 1.34 0 0.68 0 0 Z " fill="#36955F" transform="translate(232,153)"/>
<path d="M0 0 C0.99 0.33 1.98 0.66 3 1 C2.34 2.32 1.68 3.64 1 5 C0.01 4.67 -0.98 4.34 -2 4 C-1.34 2.68 -0.68 1.36 0 0 Z " fill="#52A767" transform="translate(56,72)"/>
<path d="M0 0 C3.3 0 6.6 0 10 0 C10 0.66 10 1.32 10 2 C6.06329512 3.31223496 3.87511856 2.24296256 0 1 C0 0.67 0 0.34 0 0 Z " fill="#6AB572" transform="translate(61,6)"/>
</svg>
