<?xml version="1.0" encoding="UTF-8"?>
<svg version="1.1" xmlns="http://www.w3.org/2000/svg" width="1080" height="1080">
<path d="M0 0 C356.4 0 712.8 0 1080 0 C1080 356.4 1080 712.8 1080 1080 C723.6 1080 367.2 1080 0 1080 C0 723.6 0 367.2 0 0 Z " fill="#FEFEFE" transform="translate(0,0)"/>
<path d="M0 0 C1.5158242 -0.00929787 1.5158242 -0.00929787 3.06227112 -0.01878357 C5.18937217 -0.02585519 7.31652889 -0.02275447 9.44360352 -0.01000977 C12.67894419 0.00385285 15.91138744 -0.03025313 19.14648438 -0.06835938 C21.22265695 -0.06931077 23.29883311 -0.06745066 25.375 -0.0625 C26.33151962 -0.07575821 27.28803925 -0.08901642 28.27354431 -0.10267639 C36.89111417 0.01542971 42.76320267 3.12467813 49.06640625 8.87890625 C55.94711581 16.41568347 57.12621005 23.33328098 56.70703125 33.41796875 C56.15154344 40.31163485 53.25619788 45.1311867 48.94140625 50.37890625 C38.7965268 58.63636627 30.22362866 59.8901996 17.25390625 59.56640625 C17.92099609 60.47132813 17.92099609 60.47132813 18.6015625 61.39453125 C19.16746094 62.19375 19.73335938 62.99296875 20.31640625 63.81640625 C20.88488281 64.6053125 21.45335937 65.39421875 22.0390625 66.20703125 C23.25390625 68.56640625 23.25390625 68.56640625 22.9375 70.86328125 C22.71191406 71.4253125 22.48632812 71.98734375 22.25390625 72.56640625 C18.75203835 73.78794905 17.3196263 73.59182469 13.79980469 72.23046875 C12.479905 71.56590741 11.16808006 70.88514757 9.86328125 70.19140625 C9.15923157 69.82926025 8.45518188 69.46711426 7.72979736 69.09399414 C6.24033854 68.32382168 4.75445398 67.54670279 3.27197266 66.76318359 C1.03379846 65.5821793 -1.21596041 64.42626885 -3.46875 63.2734375 C-15.49208552 57.05163349 -25.78524109 51.37423189 -31.05859375 38.31640625 C-33.02186057 27.60767814 -31.90258852 19.72640068 -25.74609375 10.56640625 C-18.7881988 2.48940932 -10.34575951 -0.05353288 0 0 Z " fill="#31DDA4" transform="translate(329.74609375,615.43359375)"/>
<path d="M0 0 C2.97 0.33 5.94 0.66 9 1 C8.38983051 6.49152542 8.38983051 6.49152542 6.5625 8.875 C5 10 5 10 3 10 C3.495 10.78375 3.99 11.5675 4.5 12.375 C6.44575411 17.07723909 6.71168573 20.9772984 6 26 C3.88779566 30.75245976 1.06755301 33.19820487 -3.5625 35.3203125 C-8.29463756 36.63985086 -13.13700325 36.29177981 -18 36 C-18 37.65 -18 39.3 -18 41 C-16.17275391 41.05607422 -16.17275391 41.05607422 -14.30859375 41.11328125 C-12.6848671 41.17898117 -11.06117051 41.24542709 -9.4375 41.3125 C-8.23770508 41.34633789 -8.23770508 41.34633789 -7.01367188 41.38085938 C-0.96691495 41.65234642 3.95076211 42.66225095 8.875 46.4375 C11.57337696 50.18524577 11.38513336 54.53245302 11 59 C8.18979014 64.21896117 5.51958277 67.13669118 -0.078125 69.0546875 C-4.36509089 70.23361702 -8.51169642 70.36753029 -12.9375 70.375 C-13.69740234 70.39949219 -14.45730469 70.42398438 -15.24023438 70.44921875 C-21.81229464 70.48289284 -27.0252281 68.60292541 -32 64.25 C-33.52558201 60.81744047 -33.91159856 57.61768246 -33 54 C-30.8178309 51.2772936 -28.11817169 49.55908584 -25 48 C-26.0209375 46.948125 -26.0209375 46.948125 -27.0625 45.875 C-29 43 -29 43 -29 39.875 C-27.87021431 36.62686613 -26.98435238 35.62782857 -24 34 C-23.34 34 -22.68 34 -22 34 C-22 33.34 -22 32.68 -22 32 C-22.598125 31.773125 -23.19625 31.54625 -23.8125 31.3125 C-26.73627001 29.55823799 -27.63847463 28.13150836 -29 25 C-29.70698298 18.83914836 -28.88593507 13.97575822 -25 9 C-20.04575968 4.85009516 -14.76856065 4.59199621 -8.515625 4.76171875 C-6.24080554 4.97719078 -4.19188398 5.37008942 -2 6 C-1.34 4.02 -0.68 2.04 0 0 Z " fill="#DEE4E0" transform="translate(578,622)"/>
<path d="M0 0 C0.86841019 -0.00807175 1.73682037 -0.01614349 2.63154602 -0.02445984 C4.47333783 -0.03830526 6.31515534 -0.04902536 8.15698242 -0.05688477 C10.95997604 -0.07404546 13.76177404 -0.11792021 16.56445312 -0.16210938 C18.35546009 -0.17224108 20.14647708 -0.18075569 21.9375 -0.1875 C23.1863221 -0.21376213 23.1863221 -0.21376213 24.46037292 -0.24055481 C30.23808573 -0.21926215 33.54310393 0.9245535 38.30078125 4.23828125 C42.61538374 8.89351026 43.66890512 12.6309974 43.578125 18.82421875 C42.93216417 24.44680738 40.61877687 28.18926432 36.23828125 31.67578125 C31.45371568 34.22076294 27.46219699 34.4122141 22.16015625 34.44140625 C21.35974915 34.44710632 20.55934204 34.4528064 19.73468018 34.4586792 C18.04009317 34.46812267 16.34548784 34.47466059 14.65087891 34.47851562 C12.07421242 34.48819325 9.49835339 34.51921039 6.921875 34.55078125 C5.27214013 34.55731462 3.62239958 34.56256378 1.97265625 34.56640625 C1.20886658 34.57875305 0.4450769 34.59109985 -0.34185791 34.6038208 C-6.04631336 34.5803871 -10.93236422 33.61258434 -15.40625 29.7734375 C-19.64646312 24.12481437 -21.56846919 20.47268816 -20.69921875 13.23828125 C-17.29196105 3.21693506 -9.75140209 0.08548188 0 0 Z " fill="#FBFEFD" transform="translate(330.69921875,627.76171875)"/>
<path d="M0 0 C3.71351979 2.76133523 5.9706485 5.4119455 7.4375 9.8125 C7.52041953 11.8045303 7.54488177 13.79923713 7.53515625 15.79296875 C7.53193359 16.95634766 7.52871094 18.11972656 7.52539062 19.31835938 C7.51282227 21.14077148 7.51282227 21.14077148 7.5 23 C7.49548828 24.22654297 7.49097656 25.45308594 7.48632812 26.71679688 C7.47453065 29.74874668 7.45806921 32.78059906 7.4375 35.8125 C9.0875 35.8125 10.7375 35.8125 12.4375 35.8125 C12.53515625 41.96484375 12.53515625 41.96484375 12.4375 43.8125 C10.79593264 45.45406736 8.94534199 45.10065992 6.6875 45.1875 C2.01151117 45.17410175 2.01151117 45.17410175 -0.3359375 43.6953125 C-1.6875 42.3125 -1.6875 42.3125 -3.5625 39.8125 C-4.51125 40.616875 -5.46 41.42125 -6.4375 42.25 C-10.39232073 45.60300018 -13.01970109 46.15582596 -18.171875 46.09765625 C-22.12489129 45.62613633 -24.35704086 44.16753121 -27.5625 41.8125 C-30.53404317 37.23095685 -30.18765914 32.07165127 -29.5625 26.8125 C-27.15248318 22.36323818 -24.22337639 20.61143475 -19.5625 18.8125 C-16.15135698 17.95765934 -12.73439097 17.18421946 -9.29296875 16.4609375 C-6.66391419 16.08877805 -6.66391419 16.08877805 -5.5625 14.8125 C-5.52186168 13.14632885 -5.519779 11.47861905 -5.5625 9.8125 C-8.73337015 8.22706493 -11.04240484 8.47184563 -14.5625 8.8125 C-16.73649333 10.04321503 -18.68906257 11.39058686 -20.66796875 12.9140625 C-22.5625 13.8125 -22.5625 13.8125 -24.67578125 13.1484375 C-26.5625 11.8125 -26.5625 11.8125 -28.5625 8.8125 C-28.4296875 6.79296875 -28.4296875 6.79296875 -27.5625 4.8125 C-25.8203125 3.36328125 -25.8203125 3.36328125 -23.6875 2.125 C-22.98882812 1.70863281 -22.29015625 1.29226563 -21.5703125 0.86328125 C-15.15449862 -2.49441123 -6.74688658 -2.24896219 0 0 Z " fill="#DEE4E0" transform="translate(476.5625,628.1875)"/>
<path d="M0 0 C12.54 0 25.08 0 38 0 C38 3.3 38 6.6 38 10 C29.42 10 20.84 10 12 10 C12 15.28 12 20.56 12 26 C19.92 26 27.84 26 36 26 C36 29.3 36 32.6 36 36 C28.08 36 20.16 36 12 36 C12 43.92 12 51.84 12 60 C8.04 60 4.08 60 0 60 C0 40.2 0 20.4 0 0 Z " fill="#DEE4E0" transform="translate(405,613)"/>
<path d="M0 0 C4.66069153 4.33552701 6.4833462 8.04828282 7.00708008 14.33789062 C7.13016289 18.89399678 7.0369854 23.44431964 6.9375 28 C6.91740783 29.60154021 6.89916185 31.20310471 6.8828125 32.8046875 C6.83902271 36.70373081 6.77014721 40.60159466 6.6875 44.5 C2.7275 44.5 -1.2325 44.5 -5.3125 44.5 C-5.33231934 43.51080566 -5.35213867 42.52161133 -5.37255859 41.50244141 C-5.44853456 37.83827923 -5.53726352 34.17451836 -5.62988281 30.51074219 C-5.66820585 28.92390862 -5.70305288 27.33698719 -5.734375 25.75 C-5.77995431 23.47103434 -5.83795838 21.19267532 -5.8984375 18.9140625 C-5.90998871 18.20255035 -5.92153992 17.49103821 -5.93344116 16.75796509 C-5.94658239 12.67896343 -5.94658239 12.67896343 -8.3125 9.5 C-10.41999466 9.21917656 -10.41999466 9.21917656 -12.75 9.3125 C-13.53246094 9.31894531 -14.31492187 9.32539062 -15.12109375 9.33203125 C-17.49049677 9.42444331 -17.49049677 9.42444331 -20.3125 10.5 C-22.17926877 14.74750709 -22.59985088 18.6070821 -22.7265625 23.2109375 C-22.76523437 24.45488281 -22.80390625 25.69882812 -22.84375 26.98046875 C-22.89015625 28.90826172 -22.89015625 28.90826172 -22.9375 30.875 C-22.99550781 32.83759766 -22.99550781 32.83759766 -23.0546875 34.83984375 C-23.14869957 38.05975716 -23.23435821 41.2796688 -23.3125 44.5 C-26.9425 44.5 -30.5725 44.5 -34.3125 44.5 C-34.3125 29.65 -34.3125 14.8 -34.3125 -0.5 C-30.6825 -0.5 -27.0525 -0.5 -23.3125 -0.5 C-22.9825 1.15 -22.6525 2.8 -22.3125 4.5 C-20.95125 3.2934375 -20.95125 3.2934375 -19.5625 2.0625 C-14.17832541 -2.70983657 -6.37067565 -2.88483426 0 0 Z " fill="#DEE4E0" transform="translate(531.3125,628.5)"/>
<path d="M0 0 C1.26166992 0.00580078 1.26166992 0.00580078 2.54882812 0.01171875 C3.38607422 0.00785156 4.22332031 0.00398437 5.0859375 0 C5.88708984 0.00128906 6.68824219 0.00257813 7.51367188 0.00390625 C8.25093506 0.00503418 8.98819824 0.00616211 9.74780273 0.00732422 C11.61132812 0.13671875 11.61132812 0.13671875 13.61132812 1.13671875 C13.92382812 3.94921875 13.92382812 3.94921875 13.61132812 7.13671875 C10.51503794 10.33977756 7.29346089 10.35274982 3.04882812 10.44921875 C-0.60157152 10.43402985 -3.34918405 10.27407548 -6.38867188 8.13671875 C-7.20117188 4.57421875 -7.20117188 4.57421875 -7.38867188 1.13671875 C-5.44916048 -0.80279265 -2.57660068 0.00415246 0 0 Z " fill="#FDFEFE" transform="translate(563.388671875,673.86328125)"/>
<path d="M0 0 C3.375 0.875 3.375 0.875 5.375 2.875 C5.87114003 5.91529995 5.81490834 8.82905237 5.375 11.875 C3.8125 14 3.8125 14 1.375 14.875 C-2.25 14.75 -2.25 14.75 -5.625 13.875 C-8.10538907 10.1544164 -8.08837203 8.27703429 -7.625 3.875 C-5.32929152 0.20186643 -4.36360172 -0.15046902 0 0 Z " fill="#FDFEFD" transform="translate(567.625,635.125)"/>
<path d="M0 0 C0.31416607 5.23610116 -0.22352378 8.51492303 -3 13 C-5.22890995 14.11445498 -6.53055106 14.16480286 -9 14.1875 C-10.051875 14.20876953 -10.051875 14.20876953 -11.125 14.23046875 C-13 14 -13 14 -15 12 C-15.25 8.5 -15.25 8.5 -15 5 C-12.56158876 2.56158876 -10.81433885 2.23847249 -7.5 1.375 C-6.5203125 1.11460937 -5.540625 0.85421875 -4.53125 0.5859375 C-2 0 -2 0 0 0 Z " fill="#FDFDFD" transform="translate(473,651)"/>
<path d="M0 0 C1.8125 1.125 1.8125 1.125 3 3 C3.39769128 6.18153026 3.55198782 8.12844028 1.8125 10.875 C-0.65507108 12.40659584 -2.14519831 12.42822025 -5 12 C-6.8125 10.875 -6.8125 10.875 -8 9 C-8.39769128 5.81846974 -8.55198782 3.87155972 -6.8125 1.125 C-4.34492892 -0.40659584 -2.85480169 -0.42822025 0 0 Z " fill="#2DE1A6" transform="translate(356,639)"/>
<path d="M0 0 C1.8125 1.125 1.8125 1.125 3 3 C3.39769128 6.18153026 3.55198782 8.12844028 1.8125 10.875 C-0.65507108 12.40659584 -2.14519831 12.42822025 -5 12 C-6.8125 10.875 -6.8125 10.875 -8 9 C-8.39769128 5.81846974 -8.55198782 3.87155972 -6.8125 1.125 C-4.34492892 -0.40659584 -2.85480169 -0.42822025 0 0 Z " fill="#2DE1A6" transform="translate(333,639)"/>
<path d="M0 0 C3.63 0 7.26 0 11 0 C9 4 9 4 8 5 C5.07271007 5.30813578 3.57439555 5.43574835 1.1875 3.625 C0 2 0 2 0 0 Z " fill="#32D09C" transform="translate(348,646)"/>
<path d="M0 0 C3.63 0 7.26 0 11 0 C9 4 9 4 8 5 C5.07271007 5.30813578 3.57439555 5.43574835 1.1875 3.625 C0 2 0 2 0 0 Z " fill="#32D09C" transform="translate(325,646)"/>
<path d="M0 0 C2.5 0.5 2.5 0.5 5.5 4.5 C1.87 4.5 -1.76 4.5 -5.5 4.5 C-2.5 0.5 -2.5 0.5 0 0 Z " fill="#36F3B4" transform="translate(353.5,638.5)"/>
<path d="M0 0 C2.5 0.5 2.5 0.5 5.5 4.5 C1.87 4.5 -1.76 4.5 -5.5 4.5 C-2.5 0.5 -2.5 0.5 0 0 Z " fill="#36F3B4" transform="translate(330.5,638.5)"/>
</svg>
